<svg xmlns="http://www.w3.org/2000/svg" width="540" height="960" viewBox="0 0 540 960" role="img"><defs><marker id="arrow-0" viewBox="0 0 10 10" refX="9" refY="5" markerWidth="8" markerHeight="8" orient="auto"><path d="M0 0 L10 5 L0 10 z" fill="#2b6cb0"/></marker><marker id="arrow-1" viewBox="0 0 10 10" refX="9" refY="5" markerWidth="8" markerHeight="8" orient="auto"><path d="M0 0 L10 5 L0 10 z" fill="#b7791f"/></marker><marker id="arrow-2" viewBox="0 0 10 10" refX="9" refY="5" markerWidth="8" markerHeight="8" orient="auto"><path d="M0 0 L10 5 L0 10 z" fill="#6b46c1"/></marker><marker id="arrow-3" viewBox="0 0 10 10" refX="9" refY="5" markerWidth="8" markerHeight="8" orient="auto"><path d="M0 0 L10 5 L0 10 z" fill="#2f855a"/></marker><marker id="arrow-4" viewBox="0 0 10 10" refX="9" refY="5" markerWidth="8" markerHeight="8" orient="auto"><path d="M0 0 L10 5 L0 10 z" fill="#c05621"/></marker><marker id="arrow-5" viewBox="0 0 10 10" refX="9" refY="5" markerWidth="8" markerHeight="8" orient="auto"><path d="M0 0 L10 5 L0 10 z" fill="#0f766e"/></marker><marker id="arrow-6" viewBox="0 0 10 10" refX="9" refY="5" markerWidth="8" markerHeight="8" orient="auto"><path d="M0 0 L10 5 L0 10 z" fill="#9f1239"/></marker><filter id="shadow" x="-20%" y="-20%" width="140%" height="140%"><feDropShadow dx="0" dy="2" stdDeviation="2" flood-color="#1f2937" flood-opacity="0.16"/></filter></defs><rect width="540" height="960" fill="#f7f3eb"/><text x="70" y="44" font-family="Georgia,serif" font-size="30" font-weight="700" fill="#1f2933">FAM-025 - 3 saints</text><text x="70" y="76" font-family="Arial" font-size="15" fill="#4b5563"></text><text x="70" y="99" font-family="Arial" font-size="15" fill="#4b5563">Nath &amp; Shaiva Maharashtra (2), Madhya Pradesh General (1) | Juna Akhara (3)</text><g id="edges"><path d="M 208.0 262.0 C 208.0 319.6, 208.0 332.4, 208.0 390.0" fill="none" stroke="#2b6cb0" stroke-width="2.4"  marker-end="url(#arrow-0)" opacity="0.86"/><path d="M 208.0 502.0 C 208.0 559.6, 208.0 572.4, 208.0 630.0" fill="none" stroke="#2b6cb0" stroke-width="2.4"  marker-end="url(#arrow-0)" opacity="0.86"/></g><g id="nodes"><g transform="translate(78.0,150.0)"><rect width="260" height="112" rx="7" fill="#fff3c4" stroke="#b7791f" stroke-width="1.7" filter="url(#shadow)"/><text x="14" y="24" font-family="Arial" font-size="13" font-weight="700" fill="#111827">Sri Mahantji 108 Shivgiriji</text><text x="14" y="40" font-family="Arial" font-size="13" font-weight="700" fill="#111827">Maharaj of Neelgiri Parvat,</text><text x="14" y="56" font-family="Arial" font-size="13" font-weight="700" fill="#111827">Triyambakeshwar, Nashik, Madhya</text><text x="14" y="72" font-family="Arial" font-size="13" font-weight="700" fill="#111827">Pradesh</text><text x="14" y="99" font-family="Arial" font-size="11" fill="#56616f">head | 1984 | Juna Akhara</text></g><g transform="translate(78.0,390.0)"><rect width="260" height="112" rx="7" fill="#dceeff" stroke="#2b6cb0" stroke-width="1.7" filter="url(#shadow)"/><text x="14" y="24" font-family="Arial" font-size="13" font-weight="600" fill="#111827">Sri Sri 108 Sri Bhagat Giri</text><text x="14" y="40" font-family="Arial" font-size="13" font-weight="600" fill="#111827">Bacchu Maharaj of Amoleshwar</text><text x="14" y="56" font-family="Arial" font-size="13" font-weight="600" fill="#111827">Dham, distr. Umariya, Dindauri,</text><text x="14" y="72" font-family="Arial" font-size="13" font-weight="600" fill="#111827">Madhya Pradesh</text><text x="14" y="99" font-family="Arial" font-size="11" fill="#56616f">subgroup | Juna Akhara</text></g><g transform="translate(78.0,630.0)"><rect width="260" height="112" rx="7" fill="#ffffff" stroke="#c8c2b8" stroke-width="1.7" filter="url(#shadow)"/><text x="14" y="24" font-family="Arial" font-size="13" font-weight="600" fill="#111827">Sri Thanapati Sukhdev Giri of</text><text x="14" y="40" font-family="Arial" font-size="13" font-weight="600" fill="#111827">Sri Panch Dashnam, Juna Akhara,</text><text x="14" y="56" font-family="Arial" font-size="13" font-weight="600" fill="#111827">Neelparvat, Triyambakeshwar,</text><text x="14" y="72" font-family="Arial" font-size="13" font-weight="600" fill="#111827">Nashik</text><text x="14" y="99" font-family="Arial" font-size="11" fill="#56616f">Juna Akhara</text></g></g></svg>