<svg xmlns="http://www.w3.org/2000/svg" width="924" height="720" viewBox="0 0 924 720" role="img"><defs><marker id="arrow-0" viewBox="0 0 10 10" refX="9" refY="5" markerWidth="8" markerHeight="8" orient="auto"><path d="M0 0 L10 5 L0 10 z" fill="#2b6cb0"/></marker><marker id="arrow-1" viewBox="0 0 10 10" refX="9" refY="5" markerWidth="8" markerHeight="8" orient="auto"><path d="M0 0 L10 5 L0 10 z" fill="#b7791f"/></marker><marker id="arrow-2" viewBox="0 0 10 10" refX="9" refY="5" markerWidth="8" markerHeight="8" orient="auto"><path d="M0 0 L10 5 L0 10 z" fill="#6b46c1"/></marker><marker id="arrow-3" viewBox="0 0 10 10" refX="9" refY="5" markerWidth="8" markerHeight="8" orient="auto"><path d="M0 0 L10 5 L0 10 z" fill="#2f855a"/></marker><marker id="arrow-4" viewBox="0 0 10 10" refX="9" refY="5" markerWidth="8" markerHeight="8" orient="auto"><path d="M0 0 L10 5 L0 10 z" fill="#c05621"/></marker><marker id="arrow-5" viewBox="0 0 10 10" refX="9" refY="5" markerWidth="8" markerHeight="8" orient="auto"><path d="M0 0 L10 5 L0 10 z" fill="#0f766e"/></marker><marker id="arrow-6" viewBox="0 0 10 10" refX="9" refY="5" markerWidth="8" markerHeight="8" orient="auto"><path d="M0 0 L10 5 L0 10 z" fill="#9f1239"/></marker><filter id="shadow" x="-20%" y="-20%" width="140%" height="140%"><feDropShadow dx="0" dy="2" stdDeviation="2" flood-color="#1f2937" flood-opacity="0.16"/></filter></defs><rect width="924" height="720" fill="#f7f3eb"/><text x="70" y="44" font-family="Georgia,serif" font-size="30" font-weight="700" fill="#1f2933">FAM-023 - 3 saints</text><text x="70" y="76" font-family="Arial" font-size="15" fill="#4b5563"></text><text x="70" y="99" font-family="Arial" font-size="15" fill="#4b5563">Gaudiya Vaishnava Heartland (2), Braj Mandal (1) | Nityananda Sampradaya (1)</text><g id="edges"><path d="M 592.0 262.0 C 592.0 319.6, 400.0 332.4, 400.0 390.0" fill="none" stroke="#2b6cb0" stroke-width="2.4"  marker-end="url(#arrow-0)" opacity="0.86"/><path d="M 208.0 262.0 C 208.0 319.6, 400.0 332.4, 400.0 390.0" fill="none" stroke="#b7791f" stroke-width="2.4"  marker-end="url(#arrow-1)" opacity="0.86"/></g><g id="nodes"><g transform="translate(270.0,390.0)"><rect width="260" height="112" rx="7" fill="#ffffff" stroke="#c8c2b8" stroke-width="1.7" filter="url(#shadow)"/><text x="14" y="24" font-family="Arial" font-size="13" font-weight="600" fill="#111827">Sri Binod Bihari Das Babaji of</text><text x="14" y="40" font-family="Arial" font-size="13" font-weight="600" fill="#111827">Barsana</text><text x="14" y="99" font-family="Arial" font-size="11" fill="#56616f">1947</text></g><g transform="translate(462.0,150.0)"><rect width="260" height="112" rx="7" fill="#fff3c4" stroke="#b7791f" stroke-width="1.7" filter="url(#shadow)"/><text x="14" y="24" font-family="Arial" font-size="13" font-weight="700" fill="#111827">Sri Sri Bhaktivedanta Baman</text><text x="14" y="40" font-family="Arial" font-size="13" font-weight="700" fill="#111827">Goswami Maharaj of Navadwip ,</text><text x="14" y="99" font-family="Arial" font-size="11" fill="#56616f">head</text></g><g transform="translate(78.0,150.0)"><rect width="260" height="112" rx="7" fill="#fff3c4" stroke="#b7791f" stroke-width="1.7" filter="url(#shadow)"/><text x="14" y="24" font-family="Arial" font-size="13" font-weight="700" fill="#111827">Sri Srimad Kishorikishorananda</text><text x="14" y="40" font-family="Arial" font-size="13" font-weight="700" fill="#111827">Das Babaji Maharaj Goswami of</text><text x="14" y="56" font-family="Arial" font-size="13" font-weight="700" fill="#111827">Navadwip (Tinkodi Baba)</text><text x="14" y="99" font-family="Arial" font-size="11" fill="#56616f">head | Nityananda Sampradaya</text></g></g></svg>