<svg xmlns="http://www.w3.org/2000/svg" width="2076" height="960" viewBox="0 0 2076 960" role="img"><defs><marker id="arrow-0" viewBox="0 0 10 10" refX="9" refY="5" markerWidth="8" markerHeight="8" orient="auto"><path d="M0 0 L10 5 L0 10 z" fill="#2b6cb0"/></marker><marker id="arrow-1" viewBox="0 0 10 10" refX="9" refY="5" markerWidth="8" markerHeight="8" orient="auto"><path d="M0 0 L10 5 L0 10 z" fill="#b7791f"/></marker><marker id="arrow-2" viewBox="0 0 10 10" refX="9" refY="5" markerWidth="8" markerHeight="8" orient="auto"><path d="M0 0 L10 5 L0 10 z" fill="#6b46c1"/></marker><marker id="arrow-3" viewBox="0 0 10 10" refX="9" refY="5" markerWidth="8" markerHeight="8" orient="auto"><path d="M0 0 L10 5 L0 10 z" fill="#2f855a"/></marker><marker id="arrow-4" viewBox="0 0 10 10" refX="9" refY="5" markerWidth="8" markerHeight="8" orient="auto"><path d="M0 0 L10 5 L0 10 z" fill="#c05621"/></marker><marker id="arrow-5" viewBox="0 0 10 10" refX="9" refY="5" markerWidth="8" markerHeight="8" orient="auto"><path d="M0 0 L10 5 L0 10 z" fill="#0f766e"/></marker><marker id="arrow-6" viewBox="0 0 10 10" refX="9" refY="5" markerWidth="8" markerHeight="8" orient="auto"><path d="M0 0 L10 5 L0 10 z" fill="#9f1239"/></marker><filter id="shadow" x="-20%" y="-20%" width="140%" height="140%"><feDropShadow dx="0" dy="2" stdDeviation="2" flood-color="#1f2937" flood-opacity="0.16"/></filter></defs><rect width="2076" height="960" fill="#f7f3eb"/><text x="70" y="44" font-family="Georgia,serif" font-size="30" font-weight="700" fill="#1f2933">FAM-007 - 8 saints</text><text x="70" y="76" font-family="Arial" font-size="15" fill="#4b5563"></text><text x="70" y="99" font-family="Arial" font-size="15" fill="#4b5563">Maharashtra General (3), Modern Guru Centers (2), Andhra Pradesh General (1) | Advaita Vedanta (1)</text><g id="edges"><path d="M 208.0 262.0 L 208.0 306.0 L 39.0 306.0 L 39.0 586.0 L 784.0 586.0 L 784.0 630.0" fill="none" stroke="#b7791f" stroke-width="2.4"  marker-end="url(#arrow-1)" opacity="0.86"/><path d="M 1360.0 262.0 C 1360.0 319.6, 1744.0 332.4, 1744.0 390.0" fill="none" stroke="#2f855a" stroke-width="2.4"  marker-end="url(#arrow-3)" opacity="0.86"/><path d="M 1360.0 262.0 C 1360.0 319.6, 1360.0 332.4, 1360.0 390.0" fill="none" stroke="#2f855a" stroke-width="2.4"  marker-end="url(#arrow-3)" opacity="0.86"/><path d="M 1744.0 502.0 C 1744.0 559.6, 1360.0 572.4, 1360.0 630.0" fill="none" stroke="#2f855a" stroke-width="2.4"  marker-end="url(#arrow-3)" opacity="0.86"/><path d="M 1744.0 502.0 C 1744.0 559.6, 784.0 572.4, 784.0 630.0" fill="none" stroke="#2f855a" stroke-width="2.4"  marker-end="url(#arrow-3)" opacity="0.86"/><line x1="592.0" y1="206.0" x2="1360.0" y2="206.0" stroke="#2f855a" stroke-width="3" stroke-dasharray="5 10" opacity="0.9"/><line x1="592.0" y1="206.0" x2="976.0" y2="206.0" stroke="#2f855a" stroke-width="3" stroke-dasharray="5 10" opacity="0.9"/><line x1="592.0" y1="206.0" x2="1360.0" y2="446.0" stroke="#2f855a" stroke-width="3" stroke-dasharray="5 10" opacity="0.9"/><line x1="1360.0" y1="446.0" x2="1360.0" y2="206.0" stroke="#2f855a" stroke-width="3" stroke-dasharray="5 10" opacity="0.9"/><line x1="1360.0" y1="446.0" x2="976.0" y2="206.0" stroke="#2f855a" stroke-width="3" stroke-dasharray="5 10" opacity="0.9"/><line x1="976.0" y1="206.0" x2="1360.0" y2="206.0" stroke="#2f855a" stroke-width="3" stroke-dasharray="5 10" opacity="0.9"/></g><g id="nodes"><g transform="translate(462.0,150.0)"><rect width="260" height="112" rx="7" fill="#fff3c4" stroke="#b7791f" stroke-width="1.7" filter="url(#shadow)"/><text x="14" y="24" font-family="Arial" font-size="13" font-weight="700" fill="#111827">Sri Bala Sai Baba of Kurnool</text><text x="14" y="99" font-family="Arial" font-size="11" fill="#56616f">head | 1960-2018</text></g><g transform="translate(1230.0,630.0)"><rect width="260" height="112" rx="7" fill="#ffffff" stroke="#c8c2b8" stroke-width="1.7" filter="url(#shadow)"/><text x="14" y="24" font-family="Arial" font-size="13" font-weight="600" fill="#111827">Sri Godavari Mata</text><text x="14" y="99" font-family="Arial" font-size="11" fill="#56616f">1914</text></g><g transform="translate(78.0,150.0)"><rect width="260" height="112" rx="7" fill="#fff3c4" stroke="#b7791f" stroke-width="1.7" filter="url(#shadow)"/><text x="14" y="24" font-family="Arial" font-size="13" font-weight="700" fill="#111827">Sri Hazrat Babajan of Pune</text><text x="14" y="99" font-family="Arial" font-size="11" fill="#56616f">head | 1931</text></g><g transform="translate(654.0,630.0)"><rect width="260" height="112" rx="7" fill="#ffffff" stroke="#c8c2b8" stroke-width="1.7" filter="url(#shadow)"/><text x="14" y="24" font-family="Arial" font-size="13" font-weight="600" fill="#111827">Sri Meher Baba of Pune</text><text x="14" y="99" font-family="Arial" font-size="11" fill="#56616f">1894-1969</text></g><g transform="translate(1230.0,390.0)"><rect width="260" height="112" rx="7" fill="#ffffff" stroke="#c8c2b8" stroke-width="1.7" filter="url(#shadow)"/><text x="14" y="24" font-family="Arial" font-size="13" font-weight="600" fill="#111827">Sri Sai Leela Amma of Andhra</text><text x="14" y="40" font-family="Arial" font-size="13" font-weight="600" fill="#111827">Pradesh</text></g><g transform="translate(846.0,150.0)"><rect width="260" height="112" rx="7" fill="#fff3c4" stroke="#b7791f" stroke-width="1.7" filter="url(#shadow)"/><text x="14" y="24" font-family="Arial" font-size="13" font-weight="700" fill="#111827">Sri Sathya Sai Baba of</text><text x="14" y="40" font-family="Arial" font-size="13" font-weight="700" fill="#111827">Puttaparthi</text><text x="14" y="99" font-family="Arial" font-size="11" fill="#56616f">head | 1926-2011</text></g><g transform="translate(1230.0,150.0)"><rect width="260" height="112" rx="7" fill="#fff3c4" stroke="#b7791f" stroke-width="1.7" filter="url(#shadow)"/><text x="14" y="24" font-family="Arial" font-size="13" font-weight="700" fill="#111827">Sri Shirdi Sai Baba of Shirdi</text><text x="14" y="99" font-family="Arial" font-size="11" fill="#56616f">head | 1918</text></g><g transform="translate(1614.0,390.0)"><rect width="260" height="112" rx="7" fill="#dceeff" stroke="#2b6cb0" stroke-width="1.7" filter="url(#shadow)"/><text x="14" y="24" font-family="Arial" font-size="13" font-weight="600" fill="#111827">Sri Upasani Maharaj of Shirdi</text><text x="14" y="99" font-family="Arial" font-size="11" fill="#56616f">subgroup | 1870-1941 | Advaita Vedanta</text></g></g></svg>