<svg xmlns="http://www.w3.org/2000/svg" width="2014" height="1200" viewBox="0 0 2014 1200" role="img"><defs><marker id="arrow-0" viewBox="0 0 10 10" refX="9" refY="5" markerWidth="8" markerHeight="8" orient="auto"><path d="M0 0 L10 5 L0 10 z" fill="#2b6cb0"/></marker><marker id="arrow-1" viewBox="0 0 10 10" refX="9" refY="5" markerWidth="8" markerHeight="8" orient="auto"><path d="M0 0 L10 5 L0 10 z" fill="#b7791f"/></marker><marker id="arrow-2" viewBox="0 0 10 10" refX="9" refY="5" markerWidth="8" markerHeight="8" orient="auto"><path d="M0 0 L10 5 L0 10 z" fill="#6b46c1"/></marker><marker id="arrow-3" viewBox="0 0 10 10" refX="9" refY="5" markerWidth="8" markerHeight="8" orient="auto"><path d="M0 0 L10 5 L0 10 z" fill="#2f855a"/></marker><marker id="arrow-4" viewBox="0 0 10 10" refX="9" refY="5" markerWidth="8" markerHeight="8" orient="auto"><path d="M0 0 L10 5 L0 10 z" fill="#c05621"/></marker><marker id="arrow-5" viewBox="0 0 10 10" refX="9" refY="5" markerWidth="8" markerHeight="8" orient="auto"><path d="M0 0 L10 5 L0 10 z" fill="#0f766e"/></marker><marker id="arrow-6" viewBox="0 0 10 10" refX="9" refY="5" markerWidth="8" markerHeight="8" orient="auto"><path d="M0 0 L10 5 L0 10 z" fill="#9f1239"/></marker><filter id="shadow" x="-20%" y="-20%" width="140%" height="140%"><feDropShadow dx="0" dy="2" stdDeviation="2" flood-color="#1f2937" flood-opacity="0.16"/></filter></defs><rect width="2014" height="1200" fill="#f7f3eb"/><text x="70" y="44" font-family="Georgia,serif" font-size="30" font-weight="700" fill="#1f2933">FAM-005 - 9 saints</text><text x="70" y="76" font-family="Arial" font-size="15" fill="#4b5563"></text><text x="70" y="99" font-family="Arial" font-size="15" fill="#4b5563">Braj Mandal (4), Gaudiya Vaishnava Heartland (3), Jagannath-Puri Tradition (2) | Gaudiya Vaishnava (3)</text><g id="edges"><path d="M 208.0 262.0 C 208.0 319.6, 914.0 332.4, 914.0 390.0" fill="none" stroke="#2b6cb0" stroke-width="2.4"  marker-end="url(#arrow-0)" opacity="0.86"/><path d="M 208.0 262.0 C 208.0 319.6, 1682.0 332.4, 1682.0 390.0" fill="none" stroke="#2b6cb0" stroke-width="2.4"  marker-end="url(#arrow-0)" opacity="0.86"/><path d="M 208.0 262.0 C 208.0 319.6, 530.0 332.4, 530.0 390.0" fill="none" stroke="#2b6cb0" stroke-width="2.4"  marker-end="url(#arrow-0)" opacity="0.86"/><path d="M 208.0 262.0 C 208.0 319.6, 1298.0 332.4, 1298.0 390.0" fill="none" stroke="#2b6cb0" stroke-width="2.4"  marker-end="url(#arrow-0)" opacity="0.86"/><path d="M 1682.0 502.0 C 1682.0 559.6, 530.0 572.4, 530.0 630.0" fill="none" stroke="#2b6cb0" stroke-width="2.4"  marker-end="url(#arrow-0)" opacity="0.86"/><path d="M 530.0 742.0 C 530.0 799.6, 530.0 812.4, 530.0 870.0" fill="none" stroke="#2b6cb0" stroke-width="2.4"  marker-end="url(#arrow-0)" opacity="0.86"/><line x1="208.0" y1="206.0" x2="852.0" y2="206.0" stroke="#b45376" stroke-width="2.6" stroke-dasharray="8 6" opacity="0.9"/><line x1="530.0" y1="206.0" x2="208.0" y2="206.0" stroke="#b45376" stroke-width="2.6" stroke-dasharray="8 6" opacity="0.9"/></g><g id="nodes"><g transform="translate(784.0,390.0)"><rect width="260" height="112" rx="7" fill="#ffffff" stroke="#c8c2b8" stroke-width="1.7" filter="url(#shadow)"/><text x="14" y="24" font-family="Arial" font-size="13" font-weight="600" fill="#111827">Goswamis of Vrindavan</text></g><g transform="translate(78.0,150.0)"><rect width="260" height="112" rx="7" fill="#fff3c4" stroke="#b7791f" stroke-width="1.7" filter="url(#shadow)"/><text x="14" y="24" font-family="Arial" font-size="13" font-weight="700" fill="#111827">Sri Chaitanya Mahaprabhu of</text><text x="14" y="40" font-family="Arial" font-size="13" font-weight="700" fill="#111827">Puri/ Navadwip</text><text x="14" y="99" font-family="Arial" font-size="11" fill="#56616f">head | 1486-1534 | Gaudiya Vaishnava</text></g><g transform="translate(400.0,390.0)"><rect width="260" height="112" rx="7" fill="#ffffff" stroke="#c8c2b8" stroke-width="1.7" filter="url(#shadow)"/><text x="14" y="24" font-family="Arial" font-size="13" font-weight="600" fill="#111827">Sri Gopala Bhatta Goswami of</text><text x="14" y="40" font-family="Arial" font-size="13" font-weight="600" fill="#111827">Vrindavan</text></g><g transform="translate(400.0,870.0)"><rect width="260" height="112" rx="7" fill="#ffffff" stroke="#c8c2b8" stroke-width="1.7" filter="url(#shadow)"/><text x="14" y="24" font-family="Arial" font-size="13" font-weight="600" fill="#111827">Sri Hemalata Thakurani of ???</text></g><g transform="translate(1552.0,390.0)"><rect width="260" height="112" rx="7" fill="#dceeff" stroke="#2b6cb0" stroke-width="1.7" filter="url(#shadow)"/><text x="14" y="24" font-family="Arial" font-size="13" font-weight="600" fill="#111827">Sri Jiva Goswami of Vrindavan</text><text x="14" y="99" font-family="Arial" font-size="11" fill="#56616f">subgroup | 1511-1596 | Gaudiya Vaishnava</text></g><g transform="translate(400.0,150.0)"><rect width="260" height="112" rx="7" fill="#ffffff" stroke="#c8c2b8" stroke-width="1.7" filter="url(#shadow)"/><text x="14" y="24" font-family="Arial" font-size="13" font-weight="600" fill="#111827">Sri Nityananda Prabhu of</text><text x="14" y="40" font-family="Arial" font-size="13" font-weight="600" fill="#111827">Navadwip</text></g><g transform="translate(1168.0,390.0)"><rect width="260" height="112" rx="7" fill="#ffffff" stroke="#c8c2b8" stroke-width="1.7" filter="url(#shadow)"/><text x="14" y="24" font-family="Arial" font-size="13" font-weight="600" fill="#111827">Sri Sarvabhauma Bhattacharya of</text><text x="14" y="40" font-family="Arial" font-size="13" font-weight="600" fill="#111827">Puri</text><text x="14" y="99" font-family="Arial" font-size="11" fill="#56616f">Gaudiya Vaishnava</text></g><g transform="translate(400.0,630.0)"><rect width="260" height="112" rx="7" fill="#dceeff" stroke="#2b6cb0" stroke-width="1.7" filter="url(#shadow)"/><text x="14" y="24" font-family="Arial" font-size="13" font-weight="600" fill="#111827">Sri Srinivasa Acharya of</text><text x="14" y="40" font-family="Arial" font-size="13" font-weight="600" fill="#111827">Vrindavan</text><text x="14" y="99" font-family="Arial" font-size="11" fill="#56616f">subgroup | 1517</text></g><g transform="translate(722.0,150.0)"><rect width="260" height="112" rx="7" fill="#ffffff" stroke="#c8c2b8" stroke-width="1.7" filter="url(#shadow)"/><text x="14" y="24" font-family="Arial" font-size="13" font-weight="600" fill="#111827">Sri Vishnupriya Devi of</text><text x="14" y="40" font-family="Arial" font-size="13" font-weight="600" fill="#111827">Navadwip</text></g></g></svg>